<svg width="644" height="644" viewBox="0 0 644 644" fill="none" xmlns="http://www.w3.org/2000/svg">
<g clip-path="url(#clip0)">
<path d="M299.177 63.536L294.131 5.65784C284.804 6.49887 275.552 7.72218 266.454 9.25133L276.47 66.5179C283.962 65.2181 291.532 64.2241 299.177 63.536Z" fill="#1E1E1C"/>
<path d="M367.377 66.5179L377.47 9.25133C368.371 7.64573 359.196 6.42241 349.792 5.65784L344.746 63.536C352.392 64.2241 359.961 65.2181 367.377 66.5179Z" fill="#1E1E1C"/>
<path d="M171.876 109.869L138.541 62.2363C130.895 67.5883 123.479 73.2461 116.368 79.2098L153.756 123.708C159.566 118.891 165.607 114.227 171.876 109.869Z" fill="#1E1E1C"/>
<path d="M567.925 234.648L622.592 214.769C619.381 205.976 615.787 197.413 611.888 189.003L559.209 213.622C562.344 220.503 565.249 227.461 567.925 234.648Z" fill="#1E1E1C"/>
<path d="M582.605 301.395L640.483 296.349C639.642 287.021 638.419 277.769 636.889 268.671L579.623 278.763C580.923 286.18 581.917 293.749 582.605 301.395Z" fill="#1E1E1C"/>
<path d="M432.519 87.0084L457.062 34.3293C448.652 30.43 440.088 26.7601 431.296 23.6253L411.417 78.2923C418.68 80.8154 425.638 83.7972 432.519 87.0084Z" fill="#1E1E1C"/>
<path d="M536.272 174.17L583.905 140.834C578.553 133.189 572.895 125.772 566.931 118.662L522.356 156.049C527.25 161.86 531.914 167.9 536.272 174.17Z" fill="#1E1E1C"/>
<path d="M490.091 123.784L527.479 79.2098C520.369 73.2461 512.952 67.5883 505.306 62.2363L471.971 109.869C478.241 114.304 484.281 118.891 490.091 123.784Z" fill="#1E1E1C"/>
<path d="M232.43 78.2158L212.551 23.5489C203.759 26.7601 195.196 30.3536 186.785 34.2529L211.328 86.932C218.209 83.7972 225.243 80.8918 232.43 78.2158Z" fill="#1E1E1C"/>
<path d="M471.971 538.565L505.306 586.198C512.952 580.846 520.369 575.188 527.479 569.225L490.091 524.727C484.281 529.543 478.241 534.131 471.971 538.565Z" fill="#1E1E1C"/>
<path d="M411.493 570.142L431.372 624.809C440.165 621.598 448.728 618.005 457.138 614.105L432.519 561.426C425.638 564.561 418.68 567.543 411.493 570.142Z" fill="#1E1E1C"/>
<path d="M344.746 584.822L349.792 642.7C359.12 641.859 368.371 640.712 377.47 639.107L367.377 581.84C359.885 583.14 352.392 584.21 344.746 584.822Z" fill="#1E1E1C"/>
<path d="M559.132 434.813L611.811 459.356C615.711 450.945 619.381 442.382 622.516 433.589L567.849 413.711C565.249 420.898 562.344 427.932 559.132 434.813Z" fill="#1E1E1C"/>
<path d="M582.605 346.963C581.917 354.609 580.923 362.178 579.623 369.595L636.889 379.687C638.419 370.589 639.718 361.337 640.483 352.009L582.605 346.963Z" fill="#1E1E1C"/>
<path d="M522.356 492.385L566.931 529.773C572.895 522.662 578.553 515.246 583.905 507.6L536.272 474.265C531.914 480.534 527.25 486.574 522.356 492.385Z" fill="#1E1E1C"/>
<path d="M276.47 581.84L266.377 639.107C275.476 640.712 284.727 641.936 294.055 642.7L299.101 584.822C291.455 584.134 283.963 583.14 276.47 581.84Z" fill="#1E1E1C"/>
<path d="M211.328 561.35L186.785 614.029C195.196 617.928 203.759 621.522 212.551 624.733L232.43 570.066C225.243 567.543 218.209 564.561 211.328 561.35Z" fill="#1E1E1C"/>
<path d="M211.328 87.0084L186.785 34.3293C178.298 38.3051 170.118 42.5867 162.09 47.2506L191.143 97.5595C197.642 93.8131 204.447 90.2196 211.328 87.0084Z" fill="#C5C4C4"/>
<path d="M276.47 66.5179L266.377 9.25134C257.202 10.8569 248.104 12.8448 239.159 15.215L254.221 71.4111C261.561 69.4233 268.977 67.8941 276.47 66.5179Z" fill="#C5C4C4"/>
<path d="M344.746 63.536L349.792 5.65784C340.617 4.81681 331.29 4.35806 321.962 4.35806V62.5421C329.608 62.5421 337.177 62.9244 344.746 63.536Z" fill="#C5C4C4"/>
<path d="M153.756 123.784L116.368 79.2098C109.257 85.1734 102.376 91.4429 95.7245 98.0183L136.859 139.152C142.287 133.8 147.945 128.678 153.756 123.784Z" fill="#C5C4C4"/>
<path d="M75.9986 234.648L21.3316 214.769C18.1968 223.485 15.4444 232.354 12.9977 241.376L69.1939 256.438C71.1053 249.098 73.399 241.758 75.9986 234.648Z" fill="#C5C4C4"/>
<path d="M107.652 174.093L60.019 140.758C54.667 148.404 49.6973 156.202 45.0334 164.307L95.3423 193.437C99.1652 186.785 103.217 180.363 107.652 174.093Z" fill="#C5C4C4"/>
<path d="M579.623 278.763L636.889 268.671C635.284 259.42 633.296 250.321 630.926 241.452L574.73 256.514C576.718 263.778 578.323 271.194 579.623 278.763Z" fill="#C5C4C4"/>
<path d="M559.132 213.622L611.811 189.079C607.836 180.592 603.554 172.411 598.89 164.383L548.581 193.437C552.328 199.936 555.845 206.664 559.132 213.622Z" fill="#C5C4C4"/>
<path d="M582.605 346.963L640.483 352.01C641.324 342.835 641.783 333.583 641.783 324.179H583.599C583.599 331.901 583.216 339.471 582.605 346.963Z" fill="#C5C4C4"/>
<path d="M471.971 109.869L505.306 62.2363C497.737 56.8843 489.862 51.9145 481.834 47.2506L452.78 97.636C459.356 101.459 465.778 105.511 471.971 109.869Z" fill="#C5C4C4"/>
<path d="M411.493 78.2158L431.372 23.5489C422.656 20.4141 413.787 17.6616 404.765 15.215L389.703 71.4111C397.043 73.399 404.306 75.6163 411.493 78.2158Z" fill="#C5C4C4"/>
<path d="M522.356 156.049L566.931 118.662C560.967 111.551 554.698 104.594 548.123 98.0948L506.988 139.152C512.341 144.581 517.463 150.162 522.356 156.049Z" fill="#C5C4C4"/>
<path d="M432.519 561.35L457.062 614.029C465.549 610.053 473.73 605.771 481.758 601.107L452.704 550.799C446.205 554.621 439.477 558.138 432.519 561.35Z" fill="#C5C4C4"/>
<path d="M367.377 581.84L377.47 639.107C386.721 637.501 395.743 635.513 404.689 633.143L389.627 577.023C382.363 578.935 374.947 580.54 367.377 581.84Z" fill="#C5C4C4"/>
<path d="M490.091 524.65L527.479 569.148C534.59 563.185 541.471 556.915 548.046 550.34L506.988 509.206C501.56 514.634 495.979 519.757 490.091 524.65Z" fill="#C5C4C4"/>
<path d="M299.178 584.822L294.131 642.7C303.306 643.465 312.558 644 322.038 644V585.892C314.24 585.892 306.67 585.434 299.178 584.822Z" fill="#C5C4C4"/>
<path d="M61.3188 301.395L3.4406 296.349C2.67603 305.523 2.21729 314.851 2.21729 324.256H60.3248C60.2484 316.533 60.6307 308.888 61.3188 301.395Z" fill="#C5C4C4"/>
<path d="M536.272 474.265L583.905 507.6C589.257 500.031 594.226 492.156 598.89 484.051L548.581 454.997C544.682 461.649 540.63 468.072 536.272 474.265Z" fill="#C5C4C4"/>
<path d="M567.925 413.711L622.592 433.589C625.803 424.873 628.479 416.004 630.926 406.982L574.73 391.92C572.742 399.337 570.524 406.6 567.925 413.711Z" fill="#C5C4C4"/>
<path d="M84.7912 434.813L32.1121 459.356C36.0878 467.766 40.3695 476.023 45.0333 484.051L95.3423 454.997C91.5194 448.499 88.0024 441.694 84.7912 434.813Z" fill="#C5C4C4"/>
<path d="M64.3006 369.671L7.03406 379.764C8.63966 389.015 10.6276 398.037 12.9977 406.982L69.1939 391.92C67.206 384.657 65.6004 377.164 64.3006 369.671Z" fill="#C5C4C4"/>
<path d="M171.876 538.565L138.541 586.198C146.186 591.55 153.985 596.52 162.09 601.184L191.143 550.799C184.492 546.976 178.069 542.923 171.876 538.565Z" fill="#C5C4C4"/>
<path d="M121.491 492.385L76.9161 529.773C82.8797 536.883 89.1492 543.764 95.7246 550.34L136.859 509.206C131.507 503.854 126.384 498.196 121.491 492.385Z" fill="#C5C4C4"/>
<path d="M232.43 570.142L212.551 624.809C221.267 628.02 230.137 630.696 239.158 633.143L254.221 576.947C246.804 574.959 239.541 572.742 232.43 570.142Z" fill="#C5C4C4"/>
<path d="M153.756 524.65L116.368 569.148C123.479 575.112 130.895 580.77 138.541 586.122L171.876 538.489C165.607 534.131 159.566 529.543 153.756 524.65Z" fill="#1E1E1C"/>
<path d="M339.7 121.491L344.746 63.6125C337.177 62.9244 329.608 62.5421 321.962 62.5421V120.65C327.925 120.65 333.813 120.955 339.7 121.491Z" fill="#1C1C1B"/>
<path d="M235.947 139.764L211.405 87.0849C204.523 90.3726 197.719 93.8896 191.22 97.636L220.274 147.945C225.32 144.963 230.519 142.287 235.947 139.764Z" fill="#1C1C1B"/>
<path d="M205.211 157.502L171.876 109.869C165.607 114.227 159.566 118.891 153.756 123.784L191.143 168.283C195.654 164.536 200.395 160.943 205.211 157.502Z" fill="#1C1C1B"/>
<path d="M191.143 168.283L153.756 123.708C147.945 128.601 142.287 133.724 136.859 139.076L177.993 180.21C182.198 176.081 186.632 172.105 191.143 168.283Z" fill="#1C1C1B"/>
<path d="M304.224 121.491L299.177 63.6125C291.532 64.3006 283.962 65.2945 276.546 66.5943L286.638 123.861C292.373 122.79 298.26 122.026 304.224 121.491Z" fill="#1C1C1B"/>
<path d="M269.283 127.607L254.221 71.4111C246.804 73.399 239.541 75.6163 232.43 78.2158L252.309 132.883C257.891 130.895 263.472 129.136 269.283 127.607Z" fill="#1C1C1B"/>
<path d="M513.258 254.603L567.925 234.724C565.325 227.537 562.344 220.503 559.132 213.622L506.453 238.165C508.9 243.517 511.194 248.945 513.258 254.603Z" fill="#1C1C1B"/>
<path d="M488.639 207.505L536.272 174.17C531.914 167.977 527.25 161.86 522.356 156.049L477.858 193.361C481.605 197.872 485.198 202.612 488.639 207.505Z" fill="#1C1C1B"/>
<path d="M525.491 324.179H583.599C583.599 316.457 583.216 308.888 582.528 301.395L524.65 306.517C525.185 312.328 525.491 318.215 525.491 324.179Z" fill="#727071"/>
<path d="M524.65 306.441L582.528 301.395C581.84 293.749 580.846 286.18 579.546 278.763L522.28 288.856C523.35 294.59 524.115 300.554 524.65 306.441Z" fill="#1C1C1B"/>
<path d="M374.641 127.607L389.703 71.4112C382.363 69.4997 374.947 67.8941 367.377 66.5179L357.285 123.784C363.172 124.778 368.907 126.078 374.641 127.607Z" fill="#1C1C1B"/>
<path d="M407.976 139.764L432.519 87.0849C425.638 83.8737 418.68 80.9683 411.417 78.2923L391.538 132.959C397.196 134.947 402.624 137.241 407.976 139.764Z" fill="#1C1C1B"/>
<path d="M438.636 157.502L471.971 109.869C465.778 105.511 459.356 101.459 452.78 97.636L423.65 147.945C428.849 150.927 433.819 154.138 438.636 157.502Z" fill="#1C1C1B"/>
<path d="M465.854 180.286L506.988 139.152C501.56 133.724 495.979 128.678 490.168 123.784L452.78 168.359C457.291 172.105 461.649 176.081 465.854 180.286Z" fill="#1C1C1B"/>
<path d="M452.704 168.283L490.091 123.708C484.281 118.815 478.241 114.227 471.971 109.793L438.636 157.502C443.529 160.866 448.193 164.536 452.704 168.283Z" fill="#1C1C1B"/>
<path d="M522.356 359.579L579.623 369.671C580.923 362.255 581.917 354.686 582.605 347.04L524.727 341.994C524.115 347.881 523.35 353.768 522.356 359.579Z" fill="#727071"/>
<path d="M423.726 500.413L452.857 550.722C459.432 546.899 465.854 542.771 472.047 538.489L438.636 490.856C433.819 494.297 428.849 497.508 423.726 500.413Z" fill="#1C1C1B"/>
<path d="M374.641 520.827L389.703 577.023C397.043 575.035 404.383 572.818 411.493 570.219L391.614 515.552C386.033 517.54 380.375 519.298 374.641 520.827Z" fill="#1C1C1B"/>
<path d="M339.7 526.944L344.746 584.822C352.392 584.134 359.961 583.14 367.377 581.84L357.285 524.574C351.474 525.644 345.664 526.409 339.7 526.944Z" fill="#1C1C1B"/>
<path d="M321.962 527.708V585.892C329.684 585.892 337.253 585.434 344.746 584.822L339.7 526.944C333.813 527.403 327.925 527.708 321.962 527.708Z" fill="#1C1C1B"/>
<path d="M513.258 393.832L567.925 413.711C570.525 406.6 572.742 399.337 574.73 391.92L518.534 376.858C517.004 382.669 515.246 388.327 513.258 393.832Z" fill="#727071"/>
<path d="M518.534 376.858L574.73 391.92C576.641 384.58 578.323 377.164 579.623 369.595L522.356 359.502C521.362 365.39 520.063 371.2 518.534 376.858Z" fill="#727071"/>
<path d="M506.377 410.194L559.056 434.736C562.267 427.855 565.249 420.821 567.849 413.634L513.182 393.755C511.194 399.413 508.9 404.842 506.377 410.194Z" fill="#1C1C1B"/>
<path d="M525.491 324.179C525.491 330.143 525.185 336.03 524.65 341.917L582.528 346.963C583.216 339.471 583.599 331.825 583.599 324.179H525.491Z" fill="#1C1C1B"/>
<path d="M477.858 454.998L522.356 492.385C527.25 486.498 531.914 480.458 536.272 474.265L488.639 440.929C485.275 445.746 481.605 450.487 477.858 454.998Z" fill="#727071"/>
<path d="M465.854 468.072L506.988 509.206C512.341 503.854 517.463 498.196 522.356 492.385L477.858 454.997C474.035 459.585 470.06 463.943 465.854 468.072Z" fill="#1C1C1B"/>
<path d="M498.196 425.944L548.505 454.997C552.328 448.422 555.845 441.694 559.056 434.736L506.377 410.193C503.854 415.622 501.101 420.821 498.196 425.944Z" fill="#727071"/>
<path d="M488.639 440.929L536.272 474.265C540.63 468.072 544.682 461.573 548.581 454.997L498.196 425.944C495.214 431.066 492.003 436.113 488.639 440.929Z" fill="#1C1C1B"/>
<path d="M304.224 526.944L299.177 584.822C306.747 585.51 314.316 585.892 321.962 585.892V527.708C315.998 527.708 310.034 527.403 304.224 526.944Z" fill="#1C1C1B"/>
<path d="M506.377 238.165L559.056 213.622C555.845 206.741 552.328 199.936 548.505 193.437L498.196 222.491C501.101 227.537 503.854 232.813 506.377 238.165Z" fill="#727071"/>
<path d="M119.197 306.441L61.3187 301.395C60.6306 308.888 60.2484 316.533 60.2484 324.179H118.432C118.432 318.215 118.738 312.328 119.197 306.441Z" fill="#727071"/>
<path d="M522.356 288.856L579.623 278.763C578.323 271.194 576.641 263.778 574.73 256.514L518.534 271.576C520.063 277.234 521.362 282.969 522.356 288.856Z" fill="#727071"/>
<path d="M477.858 193.361L522.356 155.973C517.463 150.162 512.341 144.504 506.988 139.076L465.854 180.21C470.06 184.492 474.035 188.85 477.858 193.361Z" fill="#727071"/>
<path d="M118.432 324.179H60.2484C60.2484 331.901 60.7071 339.471 61.3187 346.963L119.197 341.917C118.738 336.106 118.432 330.219 118.432 324.179Z" fill="#1C1C1B"/>
<path d="M407.976 508.671L432.519 561.35C439.477 558.138 446.205 554.621 452.78 550.799L423.65 500.49C418.604 503.395 413.328 506.147 407.976 508.671Z" fill="#727071"/>
<path d="M452.704 480.076L490.091 524.65C495.902 519.757 501.56 514.634 506.988 509.282L465.854 468.148C461.649 472.277 457.291 476.253 452.704 480.076Z" fill="#727071"/>
<path d="M357.285 524.574L367.377 581.84C374.947 580.54 382.363 578.935 389.703 576.947L374.641 520.827C368.907 522.356 363.172 523.58 357.285 524.574Z" fill="#727071"/>
<path d="M155.208 440.929L107.575 474.265C111.934 480.458 116.597 486.574 121.491 492.385L166.065 454.998C162.242 450.487 158.649 445.746 155.208 440.929Z" fill="#727071"/>
<path d="M166.065 454.997L121.491 492.385C126.384 498.196 131.507 503.854 136.859 509.206L177.993 468.072C173.864 463.943 169.888 459.585 166.065 454.997Z" fill="#727071"/>
<path d="M119.197 341.917L61.3188 346.963C62.0069 354.609 62.9244 362.178 64.3006 369.595L121.567 359.502C120.497 353.768 119.732 347.881 119.197 341.917Z" fill="#727071"/>
<path d="M252.309 515.475L232.43 570.142C239.541 572.742 246.804 574.959 254.221 576.947L269.283 520.751C263.548 519.298 257.814 517.54 252.309 515.475Z" fill="#727071"/>
<path d="M269.283 520.827L254.221 577.023C261.56 578.935 268.977 580.54 276.546 581.917L286.638 524.65C280.751 523.58 274.941 522.356 269.283 520.827Z" fill="#727071"/>
<path d="M286.562 524.574L276.546 581.84C283.962 583.14 291.532 584.134 299.177 584.822L304.224 526.944C298.26 526.409 292.373 525.644 286.562 524.574Z" fill="#727071"/>
<path d="M177.993 468.072L136.935 509.206C142.364 514.634 147.945 519.757 153.756 524.574L191.143 479.999C186.632 476.253 182.198 472.353 177.993 468.072Z" fill="#727071"/>
<path d="M191.143 480.076L153.756 524.65C159.566 529.543 165.607 534.131 171.876 538.565L205.211 490.932C200.318 487.492 195.654 483.898 191.143 480.076Z" fill="#1C1C1B"/>
<path d="M220.197 500.413L191.143 550.722C197.719 554.545 204.447 558.062 211.405 561.273L235.947 508.594C230.519 506.147 225.32 503.395 220.197 500.413Z" fill="#1C1C1B"/>
<path d="M205.211 490.932L171.876 538.565C178.069 542.923 184.492 547.052 191.143 550.875L220.274 500.566C215.074 497.508 210.028 494.296 205.211 490.932Z" fill="#1C1C1B"/>
<path d="M433.284 230.825C436.036 234.036 438.559 237.4 441.006 240.917C443.452 244.358 445.67 247.951 447.811 251.621C449.951 255.291 451.863 259.037 453.621 262.86C455.38 266.683 457.062 270.582 458.438 274.558C459.891 278.458 461.191 282.51 462.261 286.639C463.331 290.691 464.325 294.819 465.013 299.025C465.702 303.153 466.313 307.282 466.695 311.564L524.727 306.517C524.191 300.554 523.427 294.667 522.433 288.932C521.362 283.045 520.139 277.234 518.61 271.576C517.081 265.842 515.322 260.184 513.258 254.603C511.27 249.022 508.9 243.593 506.453 238.241C503.93 232.889 501.178 227.613 498.272 222.491C495.291 217.368 492.156 212.322 488.715 207.505C485.275 202.688 481.758 197.948 477.935 193.437C474.112 188.926 470.136 184.492 465.931 180.363L424.797 221.497C427.702 224.402 430.531 227.537 433.284 230.825Z" fill="#9B9B99"/>
<path d="M359.502 183.88C363.631 185.027 367.607 186.25 371.583 187.703C375.558 189.155 379.458 190.761 383.281 192.52C387.103 194.355 390.85 196.266 394.52 198.407C398.19 200.548 401.783 202.765 405.224 205.211C408.664 207.658 412.029 210.181 415.316 212.934L452.704 168.359C448.193 164.536 443.452 160.943 438.636 157.579C433.742 154.138 428.773 151.003 423.65 148.021C418.527 145.04 413.252 142.287 407.9 139.84C402.548 137.317 397.119 135.024 391.538 133.036C385.957 131.048 380.299 129.289 374.564 127.684C368.83 126.155 363.096 124.931 357.209 123.861C351.398 122.867 345.587 122.102 339.623 121.567C333.813 121.032 327.849 120.726 321.885 120.726V178.834C326.167 178.834 330.372 179.139 334.577 179.445C338.782 179.828 342.988 180.439 347.116 181.127C351.321 181.892 355.45 182.809 359.502 183.88Z" fill="#9B9B99"/>
<path d="M155.208 207.505C151.768 212.322 148.633 217.368 145.651 222.491C142.669 227.613 139.917 232.889 137.47 238.241C134.947 243.593 132.653 249.021 130.666 254.603C128.678 260.108 126.919 265.766 125.314 271.576C123.784 277.311 122.561 283.045 121.491 288.932C120.497 294.743 119.732 300.554 119.197 306.517C118.662 312.328 118.356 318.215 118.356 324.256C118.356 330.219 118.662 336.106 119.197 341.994C119.732 347.957 120.497 353.844 121.491 359.579C122.561 365.39 123.784 371.2 125.314 376.935L181.663 361.872C180.592 357.82 179.675 353.692 178.91 349.486C178.146 345.358 177.61 341.229 177.228 336.947C176.846 332.742 176.616 328.537 176.616 324.256C176.616 319.974 176.922 315.769 177.228 311.564C177.61 307.358 178.222 303.153 178.91 299.025C179.675 294.819 180.592 290.691 181.663 286.638C182.809 282.51 184.033 278.458 185.485 274.558C186.938 270.582 188.544 266.683 190.302 262.86C192.137 259.037 194.049 255.291 196.113 251.621C198.254 247.951 200.471 244.358 202.918 240.917C205.364 237.4 207.887 234.036 210.563 230.825L165.989 193.437C162.242 197.872 158.649 202.612 155.208 207.505Z" fill="#9B9B99"/>
<path d="M309.652 468.913L304.53 527.326C310.417 527.861 316.38 528.167 322.421 528.167V469.601C318.139 469.524 313.857 469.219 309.652 468.913Z" fill="#9B9B99"/>
<path d="M202.383 407.059L154.291 440.7C157.731 445.593 161.325 450.334 165.224 454.921L210.181 417.228C207.352 413.94 204.829 410.499 202.383 407.059Z" fill="#9B9B99"/>
<path d="M218.744 426.632L177.305 468.072C181.51 472.277 185.944 476.329 190.532 480.152L228.225 435.271C224.937 432.519 221.726 429.614 218.744 426.632Z" fill="#1E1E1C"/>
<path d="M189.614 384.886L136.323 409.658C138.847 415.087 141.675 420.362 144.581 425.485L195.425 396.125C193.437 392.532 191.449 388.785 189.614 384.886Z" fill="#9B9B99"/>
<path d="M260.49 455.686L235.641 508.9C241.07 511.423 246.498 513.717 252.156 515.781L272.265 460.579C268.289 459.126 264.313 457.521 260.49 455.686Z" fill="#9B9B99"/>
<path d="M238.394 442.994L204.676 491.009C209.57 494.45 214.616 497.661 219.815 500.643L249.174 449.798C245.428 447.658 241.835 445.44 238.394 442.994Z" fill="#9B9B99"/>
<path d="M284.498 464.402L269.283 521.133C275.017 522.662 280.828 523.962 286.791 524.956L296.96 467.154C292.679 466.466 288.55 465.549 284.498 464.402Z" fill="#1E1E1C"/>
<path d="M333.889 469.448L338.935 527.097C344.823 526.562 350.71 525.797 356.444 524.803L346.352 467.766C342.299 468.454 338.171 469.066 333.889 469.448Z" fill="#1C1C1B"/>
<path d="M299.025 59.6367L293.902 1.29977C284.574 2.1408 275.246 3.36412 266.071 4.96973L276.24 62.6185C283.733 61.3188 291.379 60.2484 299.025 59.6367Z" fill="#1E1E1C"/>
<path d="M367.76 62.6185L377.929 4.96973C368.754 3.36412 359.502 2.1408 350.098 1.29977L344.975 59.6367C352.698 60.2484 360.267 61.3188 367.76 62.6185Z" fill="#1E1E1C"/>
<path d="M170.882 106.199L137.317 58.2605C129.672 63.6889 122.179 69.3468 115.068 75.3869L152.685 120.267C158.572 115.298 164.613 110.634 170.882 106.199Z" fill="#1E1E1C"/>
<path d="M569.607 231.895L624.656 211.863C621.445 202.994 617.775 194.431 613.876 185.944L560.814 210.716C564.026 217.598 567.007 224.632 569.607 231.895Z" fill="#1E1E1C"/>
<path d="M584.44 299.025L642.777 293.902C641.936 284.498 640.712 275.246 639.183 266.071L581.534 276.24C582.758 283.733 583.752 291.379 584.44 299.025Z" fill="#1E1E1C"/>
<path d="M433.36 83.262L458.132 30.2006C449.646 26.3013 441.006 22.6314 432.213 19.4202L412.181 74.393C419.368 76.9925 426.479 79.9744 433.36 83.262Z" fill="#1E1E1C"/>
<path d="M537.801 170.959L585.74 137.394C580.311 129.748 574.653 122.255 568.613 115.145L523.733 152.762C528.779 158.572 533.366 164.613 537.801 170.959Z" fill="#1E1E1C"/>
<path d="M491.315 120.191L528.932 75.3869C521.745 69.3468 514.328 63.6889 506.606 58.2605L473.041 106.199C479.387 110.634 485.504 115.298 491.315 120.191Z" fill="#1E1E1C"/>
<path d="M231.895 74.393L211.863 19.4202C203.071 22.6314 194.431 26.3013 185.944 30.2006L210.716 83.262C217.598 79.9744 224.632 76.9925 231.895 74.393Z" fill="#1E1E1C"/>
<path d="M473.118 537.801L506.683 585.74C514.328 580.311 521.821 574.653 528.932 568.613L491.315 523.733C485.504 528.702 479.387 533.366 473.118 537.801Z" fill="#1E1E1C"/>
<path d="M412.181 569.607L432.213 624.656C441.082 621.445 449.722 617.775 458.132 613.876L433.36 560.814C426.479 564.026 419.368 567.007 412.181 569.607Z" fill="#1E1E1C"/>
<path d="M344.975 584.44L350.098 642.777C359.502 641.936 368.83 640.712 377.929 639.107L367.76 581.458C360.267 582.758 352.698 583.752 344.975 584.44Z" fill="#1E1E1C"/>
<path d="M560.814 433.36L613.876 458.132C617.852 449.646 621.445 441.006 624.656 432.213L569.607 412.105C567.007 419.368 564.026 426.402 560.814 433.36Z" fill="#1E1E1C"/>
<path d="M584.44 344.975C583.752 352.698 582.758 360.267 581.458 367.76L639.107 377.929C640.712 368.754 641.936 359.502 642.7 350.098L584.44 344.975Z" fill="#1E1E1C"/>
<path d="M523.809 491.315L568.613 528.932C574.653 521.745 580.311 514.328 585.74 506.683L537.801 473.118C533.366 479.387 528.702 485.504 523.809 491.315Z" fill="#1E1E1C"/>
<path d="M276.24 581.458L266.071 639.107C275.246 640.712 284.498 641.936 293.902 642.7L299.025 584.363C291.379 583.752 283.733 582.758 276.24 581.458Z" fill="#1E1E1C"/>
<path d="M210.64 560.814L185.868 613.876C194.278 617.775 202.994 621.445 211.787 624.656L231.819 569.607C224.632 567.007 217.598 564.026 210.64 560.814Z" fill="#1E1E1C"/>
<path d="M210.64 83.262L185.944 30.2006C177.457 34.1764 169.124 38.5345 161.019 43.1984L190.302 93.8896C196.878 90.0667 203.682 86.4732 210.64 83.262Z" fill="#009EDD"/>
<path d="M276.24 62.6185L266.071 4.96973C256.82 6.57533 247.645 8.56322 238.623 11.0099L253.762 67.5883C261.178 65.5239 268.671 63.9183 276.24 62.6185Z" fill="#009EDD"/>
<path d="M344.975 59.6367L350.098 1.29977C340.847 0.458744 331.442 0 322.038 0V58.5663C329.76 58.5663 337.406 58.9486 344.975 59.6367Z" fill="#009EDD"/>
<path d="M152.685 120.191L115.068 75.3869C107.881 81.3506 100.924 87.6965 94.3483 94.3483L135.712 135.712C141.14 130.283 146.798 125.161 152.685 120.191Z" fill="#009EDD"/>
<path d="M74.393 231.895L19.3437 211.863C16.1325 220.656 13.38 229.601 10.9334 238.7L67.5118 253.838C69.4997 246.345 71.7934 239.006 74.393 231.895Z" fill="#009EDD"/>
<path d="M106.199 170.882L58.2605 137.317C52.9085 144.963 47.8623 152.838 43.1219 161.019L93.8132 190.302C97.7125 183.65 101.841 177.228 106.199 170.882Z" fill="#009EDD"/>
<path d="M581.458 276.24L639.107 266.071C637.501 256.744 635.513 247.645 633.067 238.623L576.488 253.838C578.476 261.178 580.082 268.671 581.458 276.24Z" fill="#009EDD"/>
<path d="M560.814 210.64L613.876 185.868C609.9 177.381 605.542 169.047 600.878 161.019L550.187 190.302C554.01 196.878 557.527 203.682 560.814 210.64Z" fill="#009EDD"/>
<path d="M584.44 344.975L642.777 350.098C643.618 340.847 644.076 331.519 644.076 322.038H585.51C585.51 329.76 585.051 337.406 584.44 344.975Z" fill="#009EDD"/>
<path d="M473.118 106.199L506.683 58.2605C499.037 52.9085 491.162 47.8623 482.981 43.1219L453.698 93.8131C460.35 97.7125 466.848 101.841 473.118 106.199Z" fill="#009EDD"/>
<path d="M412.181 74.393L432.213 19.4202C423.497 16.209 414.475 13.4565 405.377 11.0099L390.238 67.5883C397.655 69.4997 404.994 71.7934 412.181 74.393Z" fill="#009EDD"/>
<path d="M523.809 152.685L568.613 115.068C562.649 107.881 556.303 100.924 549.652 94.3483L508.288 135.712C513.717 141.14 518.839 146.798 523.809 152.685Z" fill="#009EDD"/>
<path d="M433.36 560.814L458.132 613.876C466.619 609.9 474.953 605.542 482.981 600.878L453.698 550.187C447.122 554.01 440.318 557.527 433.36 560.814Z" fill="#009EDD"/>
<path d="M367.76 581.458L377.929 639.107C387.18 637.501 396.355 635.513 405.377 633.067L390.238 576.488C382.822 578.476 375.329 580.082 367.76 581.458Z" fill="#009EDD"/>
<path d="M491.315 523.809L528.932 568.69C536.119 562.649 543 556.38 549.652 549.728L508.288 508.365C502.86 513.717 497.202 518.839 491.315 523.809Z" fill="#009EDD"/>
<path d="M299.025 584.44L293.902 642.777C303.153 643.618 312.481 644.076 321.962 644.076V585.51C314.316 585.51 306.594 585.051 299.025 584.44Z" fill="#009EDD"/>
<path d="M59.6367 299.025L1.29977 293.902C0.535201 303.153 0 312.481 0 321.962H58.5663C58.5663 314.24 58.9486 306.594 59.6367 299.025Z" fill="#009EDD"/>
<path d="M537.801 473.118L585.739 506.683C591.091 499.037 596.138 491.162 600.878 482.981L550.187 453.698C546.288 460.35 542.159 466.848 537.801 473.118Z" fill="#009EDD"/>
<path d="M569.607 412.181L624.656 432.213C627.867 423.421 630.62 414.475 633.067 405.377L576.488 390.238C574.5 397.655 572.283 404.994 569.607 412.181Z" fill="#009EDD"/>
<path d="M83.262 433.36L30.2006 458.132C34.1764 466.619 38.5345 474.953 43.1984 482.981L93.8896 453.698C90.0667 447.122 86.4732 440.318 83.262 433.36Z" fill="#009EDD"/>
<path d="M62.6185 367.76L4.89325 377.929C6.49885 387.256 8.48674 396.355 10.9334 405.377L67.5118 390.162C65.5239 382.898 63.9183 375.329 62.6185 367.76Z" fill="#009EDD"/>
<path d="M170.959 537.801L137.394 585.739C145.04 591.091 152.915 596.138 161.096 600.878L190.379 550.187C183.65 546.288 177.152 542.159 170.959 537.801Z" fill="#009EDD"/>
<path d="M120.191 491.315L75.3869 528.932C81.427 536.119 87.6965 543.076 94.3483 549.652L135.712 508.288C130.283 502.86 125.161 497.202 120.191 491.315Z" fill="#009EDD"/>
<path d="M231.895 569.607L211.863 624.656C220.656 627.867 229.601 630.62 238.7 633.067L253.838 576.488C246.346 574.5 239.006 572.283 231.895 569.607Z" fill="#009EDD"/>
<path d="M152.685 523.809L115.068 568.69C122.255 574.73 129.672 580.388 137.317 585.816L170.959 537.877C164.613 533.366 158.572 528.702 152.685 523.809Z" fill="#1E1E1C"/>
<path d="M339.853 117.897L344.975 59.5603C337.406 58.8721 329.76 58.4899 322.038 58.4899V117.056C328.078 117.133 333.966 117.438 339.853 117.897Z" fill="#1C1C1B"/>
<path d="M235.412 136.247L210.716 83.1856C203.759 86.4732 196.954 89.9903 190.379 93.8131L219.662 144.504C224.708 141.599 229.984 138.846 235.412 136.247Z" fill="#1C1C1B"/>
<path d="M204.447 154.214L170.882 106.276C164.613 110.71 158.496 115.298 152.685 120.267L190.302 165.071C194.89 161.248 199.554 157.655 204.447 154.214Z" fill="#1C1C1B"/>
<path d="M190.302 165.071L152.685 120.191C146.798 125.161 141.14 130.283 135.712 135.712L177.075 177.075C181.357 172.87 185.715 168.894 190.302 165.071Z" fill="#1C1C1B"/>
<path d="M304.147 117.897L299.025 59.5603C291.302 60.2484 283.733 61.2423 276.24 62.5421L286.409 120.191C292.22 119.197 298.184 118.432 304.147 117.897Z" fill="#1C1C1B"/>
<path d="M268.977 124.09L253.838 67.5118C246.422 69.4997 239.082 71.7934 231.895 74.393L251.927 129.442C257.508 127.378 263.166 125.619 268.977 124.09Z" fill="#1C1C1B"/>
<path d="M514.634 251.927L569.607 231.895C567.008 224.708 564.026 217.598 560.738 210.716L507.677 235.412C510.276 240.764 512.57 246.269 514.634 251.927Z" fill="#1C1C1B"/>
<path d="M489.862 204.523L537.801 170.959C533.366 164.689 528.779 158.572 523.809 152.762L479.005 190.379C482.828 194.89 486.421 199.63 489.862 204.523Z" fill="#1C1C1B"/>
<path d="M526.944 322.038H585.51C585.51 314.316 585.128 306.67 584.44 299.101L526.103 304.224C526.638 310.034 526.944 315.998 526.944 322.038Z" fill="#3DAE2B"/>
<path d="M526.103 304.147L584.44 299.025C583.752 291.302 582.758 283.733 581.458 276.24L523.809 286.409C524.803 292.296 525.568 298.184 526.103 304.147Z" fill="#1C1C1B"/>
<path d="M375.023 124.09L390.162 67.5118C382.822 65.5239 375.329 63.9183 367.683 62.6185L357.514 120.267C363.478 121.261 369.365 122.561 375.023 124.09Z" fill="#1C1C1B"/>
<path d="M408.588 136.247L433.284 83.1856C426.402 79.8979 419.292 76.9925 412.105 74.3165L392.073 129.366C397.731 131.43 403.236 133.8 408.588 136.247Z" fill="#1C1C1B"/>
<path d="M439.553 154.214L473.118 106.276C466.848 101.918 460.35 97.7889 453.774 93.8896L424.491 144.581C429.614 147.563 434.66 150.774 439.553 154.214Z" fill="#1C1C1B"/>
<path d="M466.925 177.075L508.288 135.712C502.86 130.283 497.202 125.161 491.315 120.191L453.698 165.071C458.285 168.894 462.643 172.87 466.925 177.075Z" fill="#1C1C1B"/>
<path d="M453.698 165.071L491.315 120.191C485.428 115.298 479.387 110.634 473.118 106.199L439.553 154.138C444.446 157.655 449.187 161.248 453.698 165.071Z" fill="#1C1C1B"/>
<path d="M523.809 357.591L581.458 367.76C582.758 360.267 583.828 352.698 584.44 344.975L526.103 339.853C525.568 345.816 524.803 351.78 523.809 357.591Z" fill="#3DAE2B"/>
<path d="M424.415 499.496L453.698 550.187C460.35 546.364 466.772 542.235 473.041 537.801L439.477 489.862C434.66 493.226 429.614 496.437 424.415 499.496Z" fill="#1C1C1B"/>
<path d="M375.023 519.986L390.162 576.565C397.578 574.577 404.918 572.283 412.105 569.683L392.073 514.711C386.568 516.622 380.834 518.381 375.023 519.986Z" fill="#1C1C1B"/>
<path d="M339.853 526.103L344.975 584.44C352.698 583.752 360.267 582.758 367.76 581.458L357.591 523.809C351.78 524.803 345.816 525.644 339.853 526.103Z" fill="#1C1C1B"/>
<path d="M322.038 526.944V585.51C329.76 585.51 337.406 585.128 344.975 584.44L339.853 526.103C333.966 526.638 328.002 526.944 322.038 526.944Z" fill="#1C1C1B"/>
<path d="M514.634 392.15L569.607 412.181C572.207 404.994 574.5 397.655 576.488 390.238L519.91 375.1C518.457 380.834 516.622 386.492 514.634 392.15Z" fill="#3DAE2B"/>
<path d="M519.986 375.023L576.565 390.162C578.553 382.822 580.158 375.329 581.534 367.76L523.886 357.591C522.739 363.478 521.515 369.365 519.986 375.023Z" fill="#1C1C1B"/>
<path d="M507.753 408.588L560.814 433.284C564.102 426.402 567.007 419.292 569.683 412.105L514.711 392.073C512.57 397.731 510.276 403.236 507.753 408.588Z" fill="#1C1C1B"/>
<path d="M526.944 322.038C526.944 328.002 526.638 334.042 526.103 339.853L584.44 344.975C585.051 337.406 585.51 329.76 585.51 322.038H526.944Z" fill="#1C1C1B"/>
<path d="M478.929 453.698L523.809 491.315C528.702 485.428 533.366 479.311 537.801 473.118L489.862 439.477C486.421 444.446 482.828 449.11 478.929 453.698Z" fill="#3DAE2B"/>
<path d="M466.925 466.925L508.365 508.288C513.793 502.86 518.916 497.202 523.809 491.315L478.929 453.698C475.106 458.285 471.13 462.72 466.925 466.925Z" fill="#1C1C1B"/>
<path d="M499.419 424.491L550.11 453.774C553.933 447.199 557.527 440.394 560.738 433.437L507.677 408.741C505.23 414.016 502.401 419.292 499.419 424.491Z" fill="#3DAE2B"/>
<path d="M489.862 439.553L537.801 473.118C542.159 466.848 546.288 460.35 550.187 453.774L499.496 424.491C496.437 429.614 493.303 434.66 489.862 439.553Z" fill="#1C1C1B"/>
<path d="M304.147 526.103L299.025 584.44C306.594 585.128 314.24 585.51 321.962 585.51V526.944C315.998 526.944 310.034 526.638 304.147 526.103Z" fill="#1C1C1B"/>
<path d="M507.753 235.412L560.814 210.716C557.527 203.759 554.01 196.954 550.187 190.379L499.496 219.662C502.401 224.708 505.23 229.984 507.753 235.412Z" fill="#52BBE8"/>
<path d="M117.897 304.147L59.6367 299.101C58.9486 306.67 58.5663 314.316 58.5663 322.038H117.133C117.056 315.998 117.438 310.034 117.897 304.147Z" fill="#52BBE8"/>
<path d="M523.809 286.409L581.458 276.24C580.158 268.595 578.476 261.102 576.565 253.762L519.986 268.9C521.515 274.711 522.739 280.522 523.809 286.409Z" fill="#52BBE8"/>
<path d="M478.929 190.302L523.809 152.685C518.839 146.798 513.717 141.14 508.365 135.712L466.925 177.075C471.13 181.357 475.106 185.715 478.929 190.302Z" fill="#52BBE8"/>
<path d="M117.056 322.038H58.4899C58.4899 329.76 58.9486 337.406 59.5603 344.975L117.897 339.853C117.362 333.966 117.056 328.002 117.056 322.038Z" fill="#52BBE8"/>
<path d="M408.588 507.753L433.284 560.814C440.241 557.527 447.046 554.01 453.698 550.187L424.415 499.496C419.292 502.478 414.016 505.153 408.588 507.753Z" fill="#52BBE8"/>
<path d="M453.698 479.005L491.315 523.886C497.202 518.916 502.86 513.793 508.288 508.365L466.848 467.001C462.72 471.13 458.285 475.106 453.698 479.005Z" fill="#52BBE8"/>
<path d="M357.591 523.809L367.76 581.458C375.405 580.158 382.898 578.476 390.238 576.565L375.1 519.986C369.365 521.515 363.478 522.739 357.591 523.809Z" fill="#52BBE8"/>
<path d="M154.138 439.553L106.199 473.118C110.634 479.387 115.298 485.504 120.191 491.315L165.071 453.698C161.248 449.11 157.579 444.37 154.138 439.553Z" fill="#52BBE8"/>
<path d="M165.071 453.698L120.191 491.315C125.161 497.202 130.283 502.86 135.712 508.288L177.075 466.848C172.87 462.72 168.894 458.285 165.071 453.698Z" fill="#52BBE8"/>
<path d="M117.897 339.853L59.6367 344.975C60.3248 352.698 61.3188 360.267 62.6186 367.76L120.267 357.591C119.197 351.78 118.432 345.893 117.897 339.853Z" fill="#52BBE8"/>
<path d="M251.927 514.634L231.895 569.683C239.082 572.283 246.422 574.577 253.838 576.565L269.053 519.986C263.166 518.457 257.508 516.622 251.927 514.634Z" fill="#52BBE8"/>
<path d="M268.977 519.986L253.838 576.488C261.178 578.476 268.671 580.082 276.24 581.381L286.409 523.733C280.522 522.739 274.711 521.515 268.977 519.986Z" fill="#52BBE8"/>
<path d="M286.409 523.809L276.24 581.458C283.733 582.758 291.302 583.752 299.025 584.44L304.147 526.103C298.184 525.568 292.22 524.803 286.409 523.809Z" fill="#52BBE8"/>
<path d="M177.152 466.925L135.788 508.288C141.217 513.717 146.875 518.839 152.762 523.809L190.379 478.929C185.715 475.106 181.357 471.13 177.152 466.925Z" fill="#52BBE8"/>
<path d="M190.302 479.005L152.685 523.886C158.496 528.779 164.613 533.443 170.882 537.877L204.447 489.939C199.554 486.421 194.89 482.828 190.302 479.005Z" fill="#1C1C1B"/>
<path d="M219.585 499.496L190.302 550.187C196.954 554.01 203.682 557.603 210.64 560.814L235.336 507.753C229.984 505.153 224.708 502.401 219.585 499.496Z" fill="#1C1C1B"/>
<path d="M204.523 489.862L170.959 537.801C177.228 542.159 183.651 546.288 190.302 550.187L219.585 499.496C214.386 496.437 209.34 493.303 204.523 489.862Z" fill="#1C1C1B"/>
<path d="M434.125 227.996C436.877 231.283 439.4 234.648 441.847 238.165C444.294 241.682 446.511 245.275 448.652 248.945C450.792 252.615 452.704 256.361 454.539 260.261C456.374 264.084 457.979 268.059 459.432 272.035C460.885 276.011 462.185 280.063 463.255 284.192C464.325 288.244 465.319 292.449 466.007 296.654C466.772 300.783 467.307 304.988 467.689 309.346L526.103 304.224C525.568 298.26 524.803 292.296 523.809 286.486C522.739 280.598 521.515 274.711 519.986 268.977C518.457 263.166 516.622 257.508 514.634 251.927C512.57 246.269 510.276 240.841 507.753 235.412C505.23 229.984 502.401 224.708 499.496 219.585C496.514 214.386 493.303 209.34 489.862 204.523C486.421 199.63 482.828 194.89 479.005 190.302C475.182 185.791 471.13 181.357 466.925 177.152L425.561 218.515C428.543 221.497 431.372 224.708 434.125 227.996Z" fill="#3DAE2B"/>
<path d="M359.885 180.745C364.013 181.892 368.066 183.115 372.041 184.568C376.094 186.021 379.993 187.626 383.816 189.461C387.639 191.296 391.461 193.208 395.131 195.348C398.801 197.489 402.471 199.707 405.912 202.153C409.429 204.6 412.793 207.123 416.081 209.875L453.698 164.995C449.187 161.172 444.446 157.579 439.553 154.138C434.66 150.697 429.614 147.486 424.491 144.504C419.368 141.522 414.093 138.77 408.664 136.247C403.236 133.724 397.807 131.43 392.15 129.366C386.568 127.378 380.91 125.543 375.1 124.014C369.365 122.485 363.555 121.185 357.591 120.191C351.78 119.197 345.816 118.432 339.853 117.897C333.966 117.362 328.002 117.056 322.038 117.056V175.622C326.32 175.622 330.525 175.928 334.807 176.234C339.088 176.616 343.293 177.228 347.498 177.916C351.627 178.757 355.756 179.675 359.885 180.745Z" fill="#3DAE2B"/>
<path d="M154.138 204.523C150.697 209.417 147.563 214.386 144.504 219.585C141.522 224.785 138.77 230.06 136.247 235.412C133.724 240.764 131.43 246.269 129.366 251.927C127.378 257.508 125.619 263.166 124.014 268.977C122.485 274.711 121.261 280.522 120.191 286.486C119.197 292.296 118.432 298.184 117.897 304.224C117.362 310.111 117.056 316.075 117.056 322.038C117.056 328.002 117.362 334.042 117.897 339.853C118.432 345.816 119.197 351.78 120.191 357.591C121.261 363.478 122.485 369.365 124.014 375.1L180.745 359.885C179.598 355.832 178.681 351.704 177.916 347.422C177.152 343.217 176.616 339.088 176.234 334.73C175.852 330.525 175.546 326.32 175.546 321.962C175.546 317.68 175.852 313.399 176.234 309.193C176.616 304.912 177.228 300.707 177.916 296.578C178.681 292.373 179.598 288.244 180.745 284.115C181.892 279.987 183.115 275.934 184.568 271.959C186.021 267.983 187.626 264.007 189.461 260.184C191.296 256.361 193.208 252.539 195.348 248.869C197.489 245.199 199.707 241.605 202.23 238.088C204.676 234.571 207.199 231.207 209.952 227.919L165.071 190.302C161.248 194.89 157.579 199.63 154.138 204.523Z" fill="#009EDD"/>
<path d="M304.147 472.124L299.407 525.873C304.835 526.332 310.34 526.638 315.845 526.638V472.736C311.946 472.736 308.047 472.43 304.147 472.124Z" fill="#52BBE8"/>
<path d="M205.441 415.163L161.172 446.128C164.307 450.639 167.671 454.998 171.188 459.126L212.551 424.491C210.028 421.509 207.735 418.374 205.441 415.163Z" fill="#52BBE8"/>
<path d="M220.503 433.207L182.351 471.359C186.25 475.259 190.302 478.929 194.507 482.446L229.219 441.159C226.237 438.636 223.255 435.96 220.503 433.207Z" fill="#52BBE8"/>
<path d="M193.743 394.826L144.734 417.686C147.104 422.656 149.627 427.549 152.379 432.29L199.171 405.3C197.183 401.86 195.425 398.419 193.743 394.826Z" fill="#52BBE8"/>
<path d="M258.961 459.967L236.1 508.9C241.07 511.194 246.116 513.334 251.315 515.246L269.818 464.478C266.071 463.102 262.478 461.649 258.961 459.967Z" fill="#52BBE8"/>
<path d="M238.547 448.269L207.582 492.462C212.093 495.596 216.68 498.578 221.497 501.331L248.486 454.615C245.046 452.627 241.758 450.487 238.547 448.269Z" fill="#52BBE8"/>
<path d="M280.981 467.995L266.989 520.216C272.265 521.592 277.617 522.815 283.121 523.733L292.526 470.595C288.626 469.907 284.804 468.989 280.981 467.995Z" fill="#52BBE8"/>
<path d="M326.473 472.583L331.137 525.644C336.565 525.185 341.917 524.497 347.193 523.503L337.941 471.054C334.195 471.742 330.372 472.277 326.473 472.583Z" fill="#52BBE8"/>
</g>
<defs>
<clipPath id="clip0">
<rect width="644" height="644" fill="white"/>
</clipPath>
</defs>
</svg>
